<svg width="301" height="102" viewBox="0 0 301 102" fill="none" xmlns="http://www.w3.org/2000/svg">
<path d="M276.643 102C272.149 102 268.051 101.167 264.351 99.501C260.65 97.8351 257.704 95.3723 255.514 92.1128C253.361 88.8171 252.285 84.7789 252.285 79.9982V56.0408H271.998V78.8574C271.998 80.5234 272.338 81.8634 273.017 82.8775C273.735 83.8916 274.868 84.3986 276.416 84.3986C279.399 84.3986 280.891 82.6421 280.891 79.129V5.51822H301V77.2277C301 82.298 299.961 86.6984 297.884 90.4287C295.808 94.1228 292.937 96.984 289.274 99.0121C285.611 101.004 281.401 102 276.643 102Z" fill="#00F369"/>
<path d="M186.246 101.131L195.876 5.51822H229.693L239.152 101.131H220.29L218.873 85.7024H206.865L205.619 101.131H186.246ZM208.281 70.437H217.344L212.982 21.8158H212.076L208.281 70.437Z" fill="#00F369"/>
<path d="M133.575 101.131V5.51822H153.514V84.8332H174.02V101.131H133.575Z" fill="#00F369"/>
<path d="M91.6665 102C83.6984 102 77.5996 99.7002 73.37 95.1007C69.1783 90.4649 67.0824 83.7829 67.0824 75.0546V29.6387C67.0824 21.4537 69.1594 15.2425 73.3134 11.0051C77.5051 6.76771 83.6228 4.64902 91.6665 4.64902C99.7101 4.64902 105.809 6.76771 109.963 11.0051C114.155 15.2425 116.25 21.4537 116.25 29.6387V75.0546C116.25 83.7829 114.136 90.4649 109.906 95.1007C105.714 99.7002 99.6345 102 91.6665 102ZM91.8364 84.3986C94.8575 84.3986 96.368 81.5918 96.368 75.9782V29.3127C96.368 24.6045 94.8952 22.2504 91.9497 22.2504C88.6265 22.2504 86.9649 24.6588 86.9649 29.4757V76.0868C86.9649 79.0566 87.3425 81.1934 88.0978 82.4972C88.8531 83.7648 90.0993 84.3986 91.8364 84.3986Z" fill="#00F369"/>
<path d="M3.76213 101.131V5.51822H23.4747V43.8176L32.7645 5.51822H52.8169L41.6578 49.3044L55.1393 101.131H34.4638L23.588 54.8456V101.131H3.76213Z" fill="#00F369"/>
<path d="M275.643 100C271.149 100 267.051 99.167 263.351 97.501C259.65 95.8351 256.704 93.3723 254.514 90.1128C252.361 86.8171 251.285 82.7789 251.285 77.9982V54.0408H270.998V76.8574C270.998 78.5234 271.338 79.8634 272.017 80.8775C272.735 81.8916 273.868 82.3986 275.416 82.3986C278.399 82.3986 279.891 80.6421 279.891 77.129V3.51821H300V75.2276C300 80.298 298.961 84.6984 296.884 88.4287C294.808 92.1228 291.937 94.984 288.274 97.0121C284.611 99.004 280.401 100 275.643 100Z" fill="#4500FF"/>
<path d="M185.246 99.1308L194.876 3.51821H228.693L238.152 99.1308H219.29L217.873 83.7024H205.865L204.619 99.1308H185.246ZM207.281 68.437H216.344L211.982 19.8158H211.076L207.281 68.437Z" fill="#4500FF"/>
<path d="M132.575 99.1308V3.51821H152.514V82.8332H173.02V99.1308H132.575Z" fill="#4500FF"/>
<path d="M90.6665 100C82.6984 100 76.5996 97.7002 72.37 93.1007C68.1783 88.4649 66.0824 81.7829 66.0824 73.0546V27.6387C66.0824 19.4536 68.1594 13.2424 72.3134 9.00507C76.5051 4.7677 82.6228 2.64901 90.6665 2.64901C98.7101 2.64901 104.809 4.7677 108.963 9.00507C113.155 13.2424 115.25 19.4536 115.25 27.6387V73.0546C115.25 81.7829 113.136 88.4649 108.906 93.1007C104.714 97.7002 98.6345 100 90.6665 100ZM90.8364 82.3986C93.8575 82.3986 95.368 79.5918 95.368 73.9782V27.3127C95.368 22.6045 93.8952 20.2504 90.9497 20.2504C87.6265 20.2504 85.9649 22.6588 85.9649 27.4757V74.0868C85.9649 77.0566 86.3425 79.1934 87.0978 80.4972C87.8531 81.7648 89.0993 82.3986 90.8364 82.3986Z" fill="#4500FF"/>
<path d="M2.76213 99.1308V3.51821H22.4747V41.8176L31.7645 3.51821H51.8169L40.6578 47.3044L54.1393 99.1308H33.4638L22.588 52.8456V99.1308H2.76213Z" fill="#4500FF"/>
<path d="M272.88 97.351C268.387 97.351 264.289 96.518 260.588 94.852C256.888 93.1861 253.942 90.7233 251.752 87.4638C249.599 84.168 248.523 80.1299 248.523 75.3492V51.3918H268.236V74.2084C268.236 75.8744 268.575 77.2144 269.255 78.2285C269.973 79.2425 271.106 79.7496 272.654 79.7496C275.637 79.7496 277.129 77.9931 277.129 74.48V0.869202H297.238V72.5786C297.238 77.649 296.199 82.0494 294.122 85.7797C292.045 89.4738 289.175 92.335 285.512 94.3631C281.849 96.355 277.639 97.351 272.88 97.351Z" fill="white"/>
<path d="M182.484 96.4818L192.113 0.869202H225.931L235.39 96.4818H216.527L215.111 81.0534H203.103L201.856 96.4818H182.484ZM204.519 65.788H213.582L209.22 17.1668H208.314L204.519 65.788Z" fill="white"/>
<path d="M129.813 96.4818V0.869202H149.752V80.1842H170.257V96.4818H129.813Z" fill="white"/>
<path d="M87.9043 97.351C79.9362 97.351 73.8374 95.0512 69.6079 90.4517C65.4162 85.8159 63.3203 79.1339 63.3203 70.4056V24.9897C63.3203 16.8046 65.3973 10.5934 69.5513 6.35606C73.743 2.11869 79.8607 0 87.9043 0C95.9479 0 102.047 2.11869 106.201 6.35606C110.392 10.5934 112.488 16.8046 112.488 24.9897V70.4056C112.488 79.1339 110.374 85.8159 106.144 90.4517C101.952 95.0512 95.8724 97.351 87.9043 97.351ZM88.0743 79.7496C91.0953 79.7496 92.6059 76.9428 92.6059 71.3292V24.6637C92.6059 19.9555 91.1331 17.6014 88.1875 17.6014C84.8644 17.6014 83.2028 20.0098 83.2028 24.8267V71.4378C83.2028 74.4076 83.5804 76.5444 84.3357 77.8482C85.0909 79.1158 86.3371 79.7496 88.0743 79.7496Z" fill="white"/>
<path d="M0 96.4818V0.869202H19.7125V39.1686L29.0024 0.869202H49.0548L37.8957 44.6554L51.3772 96.4818H30.7017L19.8258 50.1966V96.4818H0Z" fill="white"/>
</svg>
